<svg xmlns="http://www.w3.org/2000/svg" version="1.1" xmlns:xlink="http://www.w3.org/1999/xlink" xmlns:svgjs="http://svgjs.com/svgjs" width="1440" height="560" preserveAspectRatio="none" viewBox="0 0 1440 560"><g mask="url(&quot;#SvgjsMask1000&quot;)" fill="none"><rect width="1440" height="560" x="0" y="0" fill="#0e2a47"></rect><path d="M146.89 -12.77L211.84 24.73L211.84 99.73L146.89 137.23L81.93 99.73L81.93 24.73zM211.84 324.73L276.8 362.23L276.8 437.23L211.84 474.73L146.89 437.23L146.89 362.23zM276.8 437.23L341.75 474.73L341.75 549.73L276.8 587.23L211.84 549.73L211.84 474.73zM536.61 -12.77L601.56 24.73L601.56 99.73L536.61 137.23L471.66 99.73L471.66 24.73zM536.61 212.23L601.56 249.73L601.56 324.73L536.61 362.23L471.66 324.73L471.66 249.73zM731.47 99.73L796.43 137.23L796.43 212.23L731.47 249.73L666.52 212.23L666.52 137.23zM796.42 437.23L861.38 474.73L861.38 549.73L796.42 587.23L731.47 549.73L731.47 474.73zM926.33 212.23L991.29 249.73L991.29 324.73L926.33 362.23L861.38 324.73L861.38 249.73zM1510.92 324.73L1575.87 362.23L1575.87 437.23L1510.92 474.73L1445.96 437.23L1445.96 362.23z" stroke="#03305d" stroke-width="2"></path><path d="M139.39 -12.77 a7.5 7.5 0 1 0 15 0 a7.5 7.5 0 1 0 -15 0zM204.34 24.73 a7.5 7.5 0 1 0 15 0 a7.5 7.5 0 1 0 -15 0zM204.34 99.73 a7.5 7.5 0 1 0 15 0 a7.5 7.5 0 1 0 -15 0zM139.39 137.23 a7.5 7.5 0 1 0 15 0 a7.5 7.5 0 1 0 -15 0zM74.43 99.73 a7.5 7.5 0 1 0 15 0 a7.5 7.5 0 1 0 -15 0zM74.43 24.73 a7.5 7.5 0 1 0 15 0 a7.5 7.5 0 1 0 -15 0zM204.34 324.73 a7.5 7.5 0 1 0 15 0 a7.5 7.5 0 1 0 -15 0zM269.3 362.23 a7.5 7.5 0 1 0 15 0 a7.5 7.5 0 1 0 -15 0zM269.3 437.23 a7.5 7.5 0 1 0 15 0 a7.5 7.5 0 1 0 -15 0zM204.34 474.73 a7.5 7.5 0 1 0 15 0 a7.5 7.5 0 1 0 -15 0zM139.39 437.23 a7.5 7.5 0 1 0 15 0 a7.5 7.5 0 1 0 -15 0zM139.39 362.23 a7.5 7.5 0 1 0 15 0 a7.5 7.5 0 1 0 -15 0zM334.25 474.73 a7.5 7.5 0 1 0 15 0 a7.5 7.5 0 1 0 -15 0zM334.25 549.73 a7.5 7.5 0 1 0 15 0 a7.5 7.5 0 1 0 -15 0zM269.3 587.23 a7.5 7.5 0 1 0 15 0 a7.5 7.5 0 1 0 -15 0zM204.34 549.73 a7.5 7.5 0 1 0 15 0 a7.5 7.5 0 1 0 -15 0zM529.11 -12.77 a7.5 7.5 0 1 0 15 0 a7.5 7.5 0 1 0 -15 0zM594.06 24.73 a7.5 7.5 0 1 0 15 0 a7.5 7.5 0 1 0 -15 0zM594.06 99.73 a7.5 7.5 0 1 0 15 0 a7.5 7.5 0 1 0 -15 0zM529.11 137.23 a7.5 7.5 0 1 0 15 0 a7.5 7.5 0 1 0 -15 0zM464.16 99.73 a7.5 7.5 0 1 0 15 0 a7.5 7.5 0 1 0 -15 0zM464.16 24.73 a7.5 7.5 0 1 0 15 0 a7.5 7.5 0 1 0 -15 0zM529.11 212.23 a7.5 7.5 0 1 0 15 0 a7.5 7.5 0 1 0 -15 0zM594.06 249.73 a7.5 7.5 0 1 0 15 0 a7.5 7.5 0 1 0 -15 0zM594.06 324.73 a7.5 7.5 0 1 0 15 0 a7.5 7.5 0 1 0 -15 0zM529.11 362.23 a7.5 7.5 0 1 0 15 0 a7.5 7.5 0 1 0 -15 0zM464.16 324.73 a7.5 7.5 0 1 0 15 0 a7.5 7.5 0 1 0 -15 0zM464.16 249.73 a7.5 7.5 0 1 0 15 0 a7.5 7.5 0 1 0 -15 0zM723.97 99.73 a7.5 7.5 0 1 0 15 0 a7.5 7.5 0 1 0 -15 0zM788.93 137.23 a7.5 7.5 0 1 0 15 0 a7.5 7.5 0 1 0 -15 0zM788.93 212.23 a7.5 7.5 0 1 0 15 0 a7.5 7.5 0 1 0 -15 0zM723.97 249.73 a7.5 7.5 0 1 0 15 0 a7.5 7.5 0 1 0 -15 0zM659.02 212.23 a7.5 7.5 0 1 0 15 0 a7.5 7.5 0 1 0 -15 0zM659.02 137.23 a7.5 7.5 0 1 0 15 0 a7.5 7.5 0 1 0 -15 0zM788.92 437.23 a7.5 7.5 0 1 0 15 0 a7.5 7.5 0 1 0 -15 0zM853.88 474.73 a7.5 7.5 0 1 0 15 0 a7.5 7.5 0 1 0 -15 0zM853.88 549.73 a7.5 7.5 0 1 0 15 0 a7.5 7.5 0 1 0 -15 0zM788.92 587.23 a7.5 7.5 0 1 0 15 0 a7.5 7.5 0 1 0 -15 0zM723.97 549.73 a7.5 7.5 0 1 0 15 0 a7.5 7.5 0 1 0 -15 0zM723.97 474.73 a7.5 7.5 0 1 0 15 0 a7.5 7.5 0 1 0 -15 0zM918.83 212.23 a7.5 7.5 0 1 0 15 0 a7.5 7.5 0 1 0 -15 0zM983.79 249.73 a7.5 7.5 0 1 0 15 0 a7.5 7.5 0 1 0 -15 0zM983.79 324.73 a7.5 7.5 0 1 0 15 0 a7.5 7.5 0 1 0 -15 0zM918.83 362.23 a7.5 7.5 0 1 0 15 0 a7.5 7.5 0 1 0 -15 0zM853.88 324.73 a7.5 7.5 0 1 0 15 0 a7.5 7.5 0 1 0 -15 0zM853.88 249.73 a7.5 7.5 0 1 0 15 0 a7.5 7.5 0 1 0 -15 0zM1503.42 324.73 a7.5 7.5 0 1 0 15 0 a7.5 7.5 0 1 0 -15 0zM1568.37 362.23 a7.5 7.5 0 1 0 15 0 a7.5 7.5 0 1 0 -15 0zM1568.37 437.23 a7.5 7.5 0 1 0 15 0 a7.5 7.5 0 1 0 -15 0zM1503.42 474.73 a7.5 7.5 0 1 0 15 0 a7.5 7.5 0 1 0 -15 0zM1438.46 437.23 a7.5 7.5 0 1 0 15 0 a7.5 7.5 0 1 0 -15 0zM1438.46 362.23 a7.5 7.5 0 1 0 15 0 a7.5 7.5 0 1 0 -15 0z" fill="#03305d"></path><path d="M29.25 -12.35L72.55 12.65L72.55 62.65L29.25 87.65L-14.05 62.65L-14.05 12.65zM29.25 137.65L72.55 162.65L72.55 212.65L29.25 237.65L-14.05 212.65L-14.05 162.65zM72.55 362.65L115.86 387.65L115.86 437.65L72.55 462.65L29.25 437.65L29.25 387.65zM115.86 -12.35L159.16 12.65L159.16 62.65L115.86 87.65L72.55 62.65L72.55 12.65zM159.16 212.65L202.46 237.65L202.46 287.65L159.16 312.65L115.86 287.65L115.86 237.65zM159.16 362.65L202.46 387.65L202.46 437.65L159.16 462.65L115.86 437.65L115.86 387.65zM159.16 512.65L202.46 537.65L202.46 587.65L159.16 612.65L115.86 587.65L115.86 537.65zM289.06 137.65L332.37 162.65L332.37 212.65L289.06 237.65L245.76 212.65L245.76 162.65zM289.06 287.65L332.37 312.65L332.37 362.65L289.06 387.65L245.76 362.65L245.76 312.65zM289.06 437.65L332.37 462.65L332.37 512.65L289.06 537.65L245.76 512.65L245.76 462.65zM332.37 512.65L375.67 537.65L375.67 587.65L332.37 612.65L289.06 587.65L289.06 537.65zM418.97 362.65L462.28 387.65L462.28 437.65L418.97 462.65L375.67 437.65L375.67 387.65zM375.67 437.65L418.97 462.65L418.97 512.65L375.67 537.65L332.37 512.65L332.37 462.65zM462.28 287.65L505.58 312.65L505.58 362.65L462.28 387.65L418.97 362.65L418.97 312.65zM592.18 62.65L635.49 87.65L635.49 137.65L592.18 162.65L548.88 137.65L548.88 87.65zM592.18 362.65L635.49 387.65L635.49 437.65L592.18 462.65L548.88 437.65L548.88 387.65zM548.88 437.65L592.18 462.65L592.18 512.65L548.88 537.65L505.58 512.65L505.58 462.65zM592.18 512.65L635.49 537.65L635.49 587.65L592.18 612.65L548.88 587.65L548.88 537.65zM678.79 212.65L722.09 237.65L722.09 287.65L678.79 312.65L635.49 287.65L635.49 237.65zM722.09 -12.35L765.39 12.65L765.39 62.65L722.09 87.65L678.79 62.65L678.79 12.65zM722.09 287.65L765.39 312.65L765.39 362.65L722.09 387.65L678.79 362.65L678.79 312.65zM765.39 362.65L808.7 387.65L808.7 437.65L765.39 462.65L722.09 437.65L722.09 387.65zM765.39 512.65L808.7 537.65L808.7 587.65L765.39 612.65L722.09 587.65L722.09 537.65zM808.7 -12.35L852 12.65L852 62.65L808.7 87.65L765.39 62.65L765.39 12.65zM852 212.65L895.3 237.65L895.3 287.65L852 312.65L808.7 287.65L808.7 237.65zM808.7 437.65L852 462.65L852 512.65L808.7 537.65L765.39 512.65L765.39 462.65zM852 512.65L895.3 537.65L895.3 587.65L852 612.65L808.7 587.65L808.7 537.65zM895.3 137.65L938.6 162.65L938.6 212.65L895.3 237.65L852 212.65L852 162.65zM895.3 287.65L938.6 312.65L938.6 362.65L895.3 387.65L852 362.65L852 312.65zM895.3 437.65L938.6 462.65L938.6 512.65L895.3 537.65L852 512.65L852 462.65zM1025.21 62.65L1068.51 87.65L1068.51 137.65L1025.21 162.65L981.91 137.65L981.91 87.65zM981.91 137.65L1025.21 162.65L1025.21 212.65L981.91 237.65L938.6 212.65L938.6 162.65zM981.91 287.65L1025.21 312.65L1025.21 362.65L981.91 387.65L938.6 362.65L938.6 312.65zM1025.21 362.65L1068.51 387.65L1068.51 437.65L1025.21 462.65L981.91 437.65L981.91 387.65zM1025.21 512.65L1068.51 537.65L1068.51 587.65L1025.21 612.65L981.91 587.65L981.91 537.65zM1068.51 -12.35L1111.81 12.65L1111.81 62.65L1068.51 87.65L1025.21 62.65L1025.21 12.65zM1111.81 62.65L1155.12 87.65L1155.12 137.65L1111.81 162.65L1068.51 137.65L1068.51 87.65zM1068.51 137.65L1111.81 162.65L1111.81 212.65L1068.51 237.65L1025.21 212.65L1025.21 162.65zM1068.51 287.65L1111.81 312.65L1111.81 362.65L1068.51 387.65L1025.21 362.65L1025.21 312.65zM1068.51 437.65L1111.81 462.65L1111.81 512.65L1068.51 537.65L1025.21 512.65L1025.21 462.65zM1155.12 -12.35L1198.42 12.65L1198.42 62.65L1155.12 87.65L1111.81 62.65L1111.81 12.65zM1198.42 212.65L1241.72 237.65L1241.72 287.65L1198.42 312.65L1155.12 287.65L1155.12 237.65zM1155.12 287.65L1198.42 312.65L1198.42 362.65L1155.12 387.65L1111.81 362.65L1111.81 312.65zM1198.42 512.65L1241.72 537.65L1241.72 587.65L1198.42 612.65L1155.12 587.65L1155.12 537.65zM1285.02 62.65L1328.33 87.65L1328.33 137.65L1285.02 162.65L1241.72 137.65L1241.72 87.65zM1241.72 137.65L1285.02 162.65L1285.02 212.65L1241.72 237.65L1198.42 212.65L1198.42 162.65zM1241.72 287.65L1285.02 312.65L1285.02 362.65L1241.72 387.65L1198.42 362.65L1198.42 312.65zM1371.63 62.65L1414.93 87.65L1414.93 137.65L1371.63 162.65L1328.33 137.65L1328.33 87.65zM1328.33 137.65L1371.63 162.65L1371.63 212.65L1328.33 237.65L1285.02 212.65L1285.02 162.65zM1371.63 362.65L1414.93 387.65L1414.93 437.65L1371.63 462.65L1328.33 437.65L1328.33 387.65zM1414.93 137.65L1458.23 162.65L1458.23 212.65L1414.93 237.65L1371.63 212.65L1371.63 162.65zM1458.23 212.65L1501.54 237.65L1501.54 287.65L1458.23 312.65L1414.93 287.65L1414.93 237.65zM1414.93 287.65L1458.23 312.65L1458.23 362.65L1414.93 387.65L1371.63 362.65L1371.63 312.65zM1414.93 437.65L1458.23 462.65L1458.23 512.65L1414.93 537.65L1371.63 512.65L1371.63 462.65zM1458.23 512.65L1501.54 537.65L1501.54 587.65L1458.23 612.65L1414.93 587.65L1414.93 537.65z" stroke="rgba(6, 80, 156, 0.93)" stroke-width="2"></path></g><defs><mask id="SvgjsMask1000"><rect width="1440" height="560" fill="#ffffff"></rect></mask></defs></svg>